<?xml version="1.0" encoding="UTF-8"?>
<svg width="338px" height="338px" viewBox="0 0 338 338" version="1.1" xmlns="http://www.w3.org/2000/svg" xmlns:xlink="http://www.w3.org/1999/xlink">
    <!-- Generator: Sketch 51.2 (57519) - http://www.bohemiancoding.com/sketch -->
    <title>icon</title>
    <desc>Created with Sketch.</desc>
    <defs></defs>
    <g id="Page-1" stroke="none" stroke-width="1" fill="none" fill-rule="evenodd">
        <g id="icon" fill="#FFFFFF" fill-rule="nonzero">
            <path d="M152.8,0.8 C182.5,-2.1 212.9,3 240,15.6 C265.7,27.5 288.3,46 305,68.8 C321.9,91.7 332.9,118.9 336.4,147.2 C340.7,180.3 334.9,214.6 319.8,244.4 C304.8,274.2 280.7,299.4 251.6,315.7 C224.2,331.2 192.3,338.6 160.9,337 C134.3,335.7 108,327.9 84.9,314.5 C58.7,299.3 36.7,276.9 22,250.5 C6.8,223.3 -0.5,191.9 1,160.8 C2.3,132.1 11.1,103.8 26.4,79.5 C44,51.4 70,28.6 100.3,15 C116.8,7.3 134.7,2.6 152.8,0.8 Z M137.1,29 C110.7,34.4 86.2,48 67.6,67.5 C47.3,86.9 33.3,112.7 28.4,140.4 C25.9,153.2 26.2,166.3 26.4,179.3 C27.5,207.6 37.9,235.4 55.7,257.5 C60.5,263.6 66.1,269.1 71.6,274.5 C90,292.3 113.8,304.6 139,309.3 C152.8,312 166.9,312 180.9,311.4 C177.8,295.5 176,279.4 170.8,264 C168.3,257.1 164.7,250.6 160.7,244.5 C159.8,243.2 158.9,241.8 157.5,240.9 C152.4,238 147.1,235.4 141.4,234 C133.3,231 124,228.7 118.5,221.4 C112.9,215.6 112.2,207.1 112,199.5 C111.8,188.7 116,178.6 118.9,168.3 C110.2,167.7 101.5,167.2 93.1,165 C85.9,163.3 79.3,160 72.8,156.6 C66,153 60.6,147.4 55.7,141.6 C50.9,135.8 49,128.2 47.2,121.1 C47,118.8 45.5,114.7 48.6,113.7 C56.9,112.4 65.4,112.6 73.8,112.7 C85.6,112.8 97.1,115.2 108.6,117.8 C122.2,121.4 135.1,128 145.3,137.8 C148.3,135.5 151.7,133.7 155.2,132.3 C155,125.7 156.4,119.2 157.2,112.7 C159.6,95.2 168.2,79.3 178.6,65.2 C180.1,63.2 182.7,61.4 185.4,62.1 C188.5,63.1 191,65.3 193,67.8 C198,74.5 202.9,81.7 204.4,90.1 C207.4,103.3 206.1,117 203.8,130.1 C207.8,131.2 212.1,132.1 215.5,134.7 C218.5,136.9 220,140.6 221.6,143.8 C223.9,143.7 226,144.7 227.5,146.3 C231.6,150.7 233.3,157 233.4,162.9 C235.2,164.1 237,165.4 239,166.1 C248.8,169.3 258.9,171.2 268.6,174.5 C273,176.8 277.9,174.3 282.5,174.8 C286.4,175 291.7,176 292.9,180.4 C293.8,184.6 293.9,189.4 291.3,193.1 C289.4,195.7 290.1,199.3 288.5,202 C284.7,210.8 276.1,215.7 269,221.5 C267.1,223.3 263.7,223.4 262.7,226.1 C259.9,232.2 254.8,236.8 249.9,241.2 C244.9,244.9 239,247.4 232.9,248.4 C226.2,249.2 219.4,249.1 212.7,248.6 C216.1,266.1 221.7,283.1 227.3,299.9 C248.1,291 265.7,276 280.2,258.8 C304,230 315.3,191.6 311.6,154.5 C309.3,130.7 300.9,107.5 287.4,87.8 C270,62.3 244.3,42.5 215,32.7 C190.1,24.5 162.8,23.2 137.1,29 Z" id="Shape"></path>
        </g>
    </g>
</svg>